<?xml version="1.0" encoding="UTF-8" standalone="no"?>
<!-- Created with Inkscape (http://www.inkscape.org/) -->

<svg
   xmlns:dc="http://purl.org/dc/elements/1.1/"
   xmlns:cc="http://creativecommons.org/ns#"
   xmlns:rdf="http://www.w3.org/1999/02/22-rdf-syntax-ns#"
   xmlns:svg="http://www.w3.org/2000/svg"
   xmlns="http://www.w3.org/2000/svg"
   xmlns:sodipodi="http://sodipodi.sourceforge.net/DTD/sodipodi-0.dtd"
   xmlns:inkscape="http://www.inkscape.org/namespaces/inkscape"
   width="48"
   height="48"
   id="svg3796"
   version="1.1"
   inkscape:version="0.48.4 r9939"
   sodipodi:docname="Nuevo documento 4">
  <defs
     id="defs3798">
    <filter
       color-interpolation-filters="sRGB"
       inkscape:collect="always"
       id="filter3776"
       x="-0.28767797"
       width="1.575356"
       y="-0.20022386"
       height="1.4004477">
      <feGaussianBlur
         inkscape:collect="always"
         stdDeviation="10.428327"
         id="feGaussianBlur3778" />
    </filter>
    <filter
       color-interpolation-filters="sRGB"
       inkscape:collect="always"
       id="filter3782"
       x="-0.23895425"
       width="1.4779085"
       y="-0.24105033"
       height="1.4821007">
      <feGaussianBlur
         inkscape:collect="always"
         stdDeviation="22.899782"
         id="feGaussianBlur3784" />
    </filter>
  </defs>
  <sodipodi:namedview
     id="base"
     pagecolor="#ffffff"
     bordercolor="#666666"
     borderopacity="1.0"
     inkscape:pageopacity="0.0"
     inkscape:pageshadow="2"
     inkscape:zoom="11.2"
     inkscape:cx="24.585651"
     inkscape:cy="27.071016"
     inkscape:document-units="px"
     inkscape:current-layer="layer1"
     showgrid="false"
     fit-margin-top="0"
     fit-margin-left="0"
     fit-margin-right="0"
     fit-margin-bottom="0"
     inkscape:window-width="1466"
     inkscape:window-height="886"
     inkscape:window-x="0"
     inkscape:window-y="24"
     inkscape:window-maximized="0" />
  <metadata
     id="metadata3801">
    <rdf:RDF>
      <cc:Work
         rdf:about="">
        <dc:format>image/svg+xml</dc:format>
        <dc:type
           rdf:resource="http://purl.org/dc/dcmitype/StillImage" />
        <dc:title></dc:title>
      </cc:Work>
    </rdf:RDF>
  </metadata>
  <g
     inkscape:label="Capa 1"
     inkscape:groupmode="layer"
     id="layer1"
     transform="translate(-185.59746,-649.23106)">
    <path
       transform="matrix(0.14121013,0,0,0.14204589,163.42175,610.67942)"
       d="m 442,440.36218 c 0,62.96046 -51.48725,114 -115,114 -63.51275,0 -115,-51.03954 -115,-114 0,-62.96046 51.48725,-114 115,-114 63.51275,0 115,51.03954 115,114 z"
       sodipodi:ry="114"
       sodipodi:rx="115"
       sodipodi:cy="440.36218"
       sodipodi:cx="327"
       id="path3780"
       style="opacity:0.8;fill:#000000;fill-opacity:1;stroke:none;filter:url(#filter3782)"
       sodipodi:type="arc" />
    <path
       sodipodi:type="arc"
       style="fill:#800000;fill-opacity:1;stroke:none"
       id="path2998"
       sodipodi:cx="327"
       sodipodi:cy="440.36218"
       sodipodi:rx="115"
       sodipodi:ry="114"
       d="m 442,440.36218 c 0,62.96046 -51.48725,114 -115,114 -63.51275,0 -115,-51.03954 -115,-114 0,-62.96046 51.48725,-114 115,-114 63.51275,0 115,51.03954 115,114 z"
       transform="matrix(0.14121013,0,0,0.14204589,163.42175,610.67942)" />
    <path
       transform="matrix(0.2097459,0,0,0.14557022,86.791237,583.14316)"
       d="m 629,618.86218 c 0,34.5178 -19.47561,62.5 -43.5,62.5 -24.02439,0 -43.5,-27.9822 -43.5,-62.5 0,-34.51779 19.47561,-62.5 43.5,-62.5 24.02439,0 43.5,27.98221 43.5,62.5 z"
       sodipodi:ry="62.5"
       sodipodi:rx="43.5"
       sodipodi:cy="618.86218"
       sodipodi:cx="585.5"
       id="path3002"
       style="opacity:0.8;fill:#000000;fill-opacity:1;stroke:none;filter:url(#filter3776)"
       sodipodi:type="arc" />
    <path
       sodipodi:type="arc"
       style="fill:#800000;fill-opacity:1;stroke:none"
       id="path3000"
       sodipodi:cx="585.5"
       sodipodi:cy="618.86218"
       sodipodi:rx="43.5"
       sodipodi:ry="62.5"
       d="m 629,618.86218 c 0,34.5178 -19.47561,62.5 -43.5,62.5 -24.02439,0 -43.5,-27.9822 -43.5,-62.5 0,-34.51779 19.47561,-62.5 43.5,-62.5 24.02439,0 43.5,27.98221 43.5,62.5 z"
       transform="matrix(0.2097459,0,0,0.14557022,86.791237,583.14316)" />
  </g>
</svg>
